<svg width="48" height="48" viewBox="0 0 48 48" fill="none" xmlns="http://www.w3.org/2000/svg">
<path d="M36.4536 39.4546C36.4536 40.4337 36.8008 41.269 37.4927 41.9609C38.1847 42.6535 39.0206 43 40.0001 43C40.9781 43 41.8141 42.6535 42.506 41.9609C43.1986 41.269 43.5451 40.4337 43.5451 39.4546C43.5451 38.4755 43.199 37.6402 42.506 36.9476C41.8141 36.2557 40.9781 35.9092 40.0001 35.9092C39.0206 35.9092 38.1847 36.2557 37.4927 36.9476C36.8008 37.6402 36.4536 38.4755 36.4536 39.4546Z" fill="white"/>
<path d="M46.5638 8.07143C46.2128 7.72052 45.7976 7.54502 45.3174 7.54502H12.0517C12.033 7.4159 11.9915 7.18063 11.9269 6.83904C11.8623 6.49726 11.8116 6.22504 11.7747 6.02169C11.7375 5.81922 11.6686 5.57436 11.5669 5.28816C11.4653 5.00178 11.3453 4.77534 11.2068 4.60954C11.0686 4.44287 10.884 4.30016 10.6531 4.17977C10.4224 4.06015 10.1591 4 9.86377 4H2.77304C2.29263 4 1.87721 4.17579 1.5264 4.52621C1.1755 4.87701 1 5.29272 1 5.77275C1 6.25278 1.1755 6.6683 1.5264 7.0191C1.8775 7.37001 2.29301 7.54531 2.77304 7.54531H8.4229L13.3253 30.3415C13.2886 30.4152 13.0993 30.7657 12.7575 31.3939C12.4159 32.0221 12.1436 32.5712 11.9407 33.042C11.7376 33.5134 11.636 33.8779 11.636 34.1362C11.636 34.6163 11.8115 35.0319 12.1622 35.3833C12.5135 35.7331 12.9289 35.9092 13.409 35.9092H15.1816H39.9995H41.7711C42.2511 35.9092 42.6667 35.7332 43.0175 35.3833C43.3686 35.032 43.544 34.6164 43.544 34.1362C43.544 33.6561 43.3686 33.2405 43.0175 32.8899C42.6668 32.5393 42.2512 32.3633 41.7711 32.3633H16.2892C16.7325 31.4768 16.9541 30.8865 16.9541 30.591C16.9541 30.4058 16.931 30.2026 16.8847 29.9815C16.8385 29.7604 16.7832 29.5153 16.7186 29.2472C16.6538 28.9802 16.6125 28.7816 16.5941 28.6522L45.512 25.273C45.9731 25.2173 46.352 25.0194 46.6474 24.6774C46.9429 24.3361 47.0902 23.9437 47.0902 23.5003V9.31836C47.09 8.83833 46.915 8.42281 46.5638 8.07143Z" fill="white"/>
<path d="M11.6362 39.4546C11.6362 40.4337 11.9823 41.269 12.6749 41.9609C13.3677 42.6535 14.2029 43 15.1818 43C16.1602 43 16.9959 42.6535 17.6882 41.9609C18.3808 41.269 18.7272 40.4337 18.7272 39.4546C18.7272 38.4755 18.3811 37.6402 17.6882 36.9476C16.9958 36.2557 16.1602 35.9092 15.1818 35.9092C14.203 35.9092 13.3673 36.2557 12.6749 36.9476C11.9827 37.6402 11.6362 38.4755 11.6362 39.4546Z" fill="white"/>
</svg>
