<svg width="34" height="43" viewBox="0 0 34 43" fill="none" xmlns="http://www.w3.org/2000/svg">
<path d="M2.39697 13.0771C2.39697 17.872 2.39697 24.6284 2.39697 27.8977C2.61493 30.731 2.83287 34.4361 3.05084 37.0516C3.26878 40.1029 5.88416 42.5003 8.93545 42.5003H25.0636C28.1148 42.5003 30.7303 40.1029 30.9483 37.0516C31.1661 34.4361 31.3842 30.731 31.6022 27.8977C31.82 24.6284 31.6022 17.872 31.6022 13.0771H2.39697Z" fill="white"/>
<path d="M32.2564 6.53846H26.8077L25.0642 3.26923C23.9745 1.3077 22.0129 0 19.8333 0H14.6026C12.4231 0 10.2436 1.3077 9.3718 3.26923L7.19232 6.53846H1.74358C0.871802 6.53846 0 7.41026 0 8.28206C0 9.15384 0.871802 10.0256 1.74358 10.0256H32.2564C33.1281 10.0256 34 9.3718 34 8.28206C34 7.19232 33.1281 6.53846 32.2564 6.53846ZM10.8974 6.53846L11.9872 4.79487C12.4231 3.92307 13.2949 3.26923 14.3846 3.26923H19.6154C20.7051 3.26923 21.5768 3.70513 22.0129 4.79487L23.1026 6.53846H10.8974Z" fill="white"/>
</svg>
